<svg id="visual" viewBox="0 0 1920 1080" width="1920" height="1080" xmlns="http://www.w3.org/2000/svg" xmlns:xlink="http://www.w3.org/1999/xlink" version="1.1"><rect x="0" y="0" width="1920" height="1080" fill="#F5F5F5"></rect><path d="M0 755L35.5 749C71 743 142 731 213.2 732.2C284.3 733.3 355.7 747.7 426.8 751.3C498 755 569 748 640 748.3C711 748.7 782 756.3 853.2 761.3C924.3 766.3 995.7 768.7 1066.8 763.7C1138 758.7 1209 746.3 1280 744.8C1351 743.3 1422 752.7 1493.2 749.2C1564.3 745.7 1635.7 729.3 1706.8 717.2C1778 705 1849 697 1884.5 693L1920 689L1920 1081L1884.5 1081C1849 1081 1778 1081 1706.8 1081C1635.7 1081 1564.3 1081 1493.2 1081C1422 1081 1351 1081 1280 1081C1209 1081 1138 1081 1066.8 1081C995.7 1081 924.3 1081 853.2 1081C782 1081 711 1081 640 1081C569 1081 498 1081 426.8 1081C355.7 1081 284.3 1081 213.2 1081C142 1081 71 1081 35.5 1081L0 1081Z" fill="#ffffff"></path><path d="M0 732L35.5 740.5C71 749 142 766 213.2 769.7C284.3 773.3 355.7 763.7 426.8 773.8C498 784 569 814 640 810C711 806 782 768 853.2 759.8C924.3 751.7 995.7 773.3 1066.8 783.7C1138 794 1209 793 1280 784.3C1351 775.7 1422 759.3 1493.2 769.7C1564.3 780 1635.7 817 1706.8 813.5C1778 810 1849 766 1884.5 744L1920 722L1920 1081L1884.5 1081C1849 1081 1778 1081 1706.8 1081C1635.7 1081 1564.3 1081 1493.2 1081C1422 1081 1351 1081 1280 1081C1209 1081 1138 1081 1066.8 1081C995.7 1081 924.3 1081 853.2 1081C782 1081 711 1081 640 1081C569 1081 498 1081 426.8 1081C355.7 1081 284.3 1081 213.2 1081C142 1081 71 1081 35.5 1081L0 1081Z" fill="#e1f7e4"></path><path d="M0 859L35.5 864.7C71 870.3 142 881.7 213.2 875.8C284.3 870 355.7 847 426.8 845.3C498 843.7 569 863.3 640 857.5C711 851.7 782 820.3 853.2 822.3C924.3 824.3 995.7 859.7 1066.8 866.5C1138 873.3 1209 851.7 1280 837.3C1351 823 1422 816 1493.2 807.2C1564.3 798.3 1635.7 787.7 1706.8 796.2C1778 804.7 1849 832.3 1884.5 846.2L1920 860L1920 1081L1884.5 1081C1849 1081 1778 1081 1706.8 1081C1635.7 1081 1564.3 1081 1493.2 1081C1422 1081 1351 1081 1280 1081C1209 1081 1138 1081 1066.8 1081C995.7 1081 924.3 1081 853.2 1081C782 1081 711 1081 640 1081C569 1081 498 1081 426.8 1081C355.7 1081 284.3 1081 213.2 1081C142 1081 71 1081 35.5 1081L0 1081Z" fill="#c3efca"></path><path d="M0 929L35.5 914.5C71 900 142 871 213.2 858.5C284.3 846 355.7 850 426.8 849.7C498 849.3 569 844.7 640 851.2C711 857.7 782 875.3 853.2 874.2C924.3 873 995.7 853 1066.8 845.5C1138 838 1209 843 1280 858C1351 873 1422 898 1493.2 898.2C1564.3 898.3 1635.7 873.7 1706.8 859C1778 844.3 1849 839.7 1884.5 837.3L1920 835L1920 1081L1884.5 1081C1849 1081 1778 1081 1706.8 1081C1635.7 1081 1564.3 1081 1493.2 1081C1422 1081 1351 1081 1280 1081C1209 1081 1138 1081 1066.8 1081C995.7 1081 924.3 1081 853.2 1081C782 1081 711 1081 640 1081C569 1081 498 1081 426.8 1081C355.7 1081 284.3 1081 213.2 1081C142 1081 71 1081 35.5 1081L0 1081Z" fill="#a3e6b0"></path><path d="M0 928L35.5 934.2C71 940.3 142 952.7 213.2 946.8C284.3 941 355.7 917 426.8 905C498 893 569 893 640 903.8C711 914.7 782 936.3 853.2 938.8C924.3 941.3 995.7 924.7 1066.8 913.7C1138 902.7 1209 897.3 1280 904.7C1351 912 1422 932 1493.2 935.5C1564.3 939 1635.7 926 1706.8 927.5C1778 929 1849 945 1884.5 953L1920 961L1920 1081L1884.5 1081C1849 1081 1778 1081 1706.8 1081C1635.7 1081 1564.3 1081 1493.2 1081C1422 1081 1351 1081 1280 1081C1209 1081 1138 1081 1066.8 1081C995.7 1081 924.3 1081 853.2 1081C782 1081 711 1081 640 1081C569 1081 498 1081 426.8 1081C355.7 1081 284.3 1081 213.2 1081C142 1081 71 1081 35.5 1081L0 1081Z" fill="#81dd97"></path><path d="M0 965L35.5 959.8C71 954.7 142 944.3 213.2 947.3C284.3 950.3 355.7 966.7 426.8 968.7C498 970.7 569 958.3 640 950.8C711 943.3 782 940.7 853.2 950C924.3 959.3 995.7 980.7 1066.8 990C1138 999.3 1209 996.7 1280 986C1351 975.3 1422 956.7 1493.2 955.3C1564.3 954 1635.7 970 1706.8 974C1778 978 1849 970 1884.5 966L1920 962L1920 1081L1884.5 1081C1849 1081 1778 1081 1706.8 1081C1635.7 1081 1564.3 1081 1493.2 1081C1422 1081 1351 1081 1280 1081C1209 1081 1138 1081 1066.8 1081C995.7 1081 924.3 1081 853.2 1081C782 1081 711 1081 640 1081C569 1081 498 1081 426.8 1081C355.7 1081 284.3 1081 213.2 1081C142 1081 71 1081 35.5 1081L0 1081Z" fill="#5ad37d"></path><path d="M0 999L35.5 1000.3C71 1001.7 142 1004.3 213.2 1003.5C284.3 1002.7 355.7 998.3 426.8 1001.5C498 1004.7 569 1015.3 640 1020.2C711 1025 782 1024 853.2 1025.7C924.3 1027.3 995.7 1031.7 1066.8 1034C1138 1036.3 1209 1036.7 1280 1033.2C1351 1029.7 1422 1022.3 1493.2 1016C1564.3 1009.7 1635.7 1004.3 1706.8 1004.5C1778 1004.7 1849 1010.3 1884.5 1013.2L1920 1016L1920 1081L1884.5 1081C1849 1081 1778 1081 1706.8 1081C1635.7 1081 1564.3 1081 1493.2 1081C1422 1081 1351 1081 1280 1081C1209 1081 1138 1081 1066.8 1081C995.7 1081 924.3 1081 853.2 1081C782 1081 711 1081 640 1081C569 1081 498 1081 426.8 1081C355.7 1081 284.3 1081 213.2 1081C142 1081 71 1081 35.5 1081L0 1081Z" fill="#17c964"></path></svg>